STARTFONT 2.3
FONT -FontForge-Indie Flower-Book-R-Normal--12-120-72-72-P-55-ISO10646-1
SIZE 12 72 72  2
FONTBOUNDINGBOX 15 18 -2 -6
COMMENT "Generated by fontforge, http://fontforge.sourceforge.net"
COMMENT "Copyright (c) 2010, Kimberly Geswein (kimberlygeswein.com)"
STARTPROPERTIES 40
FOUNDRY "FontForge"
FAMILY_NAME "Indie Flower"
WEIGHT_NAME "Book"
SLANT "R"
SETWIDTH_NAME "Normal"
ADD_STYLE_NAME ""
PIXEL_SIZE 12
POINT_SIZE 120
RESOLUTION_X 72
RESOLUTION_Y 72
SPACING "P"
AVERAGE_WIDTH 55
CHARSET_REGISTRY "ISO10646"
CHARSET_ENCODING "1"
FONTNAME_REGISTRY ""
CHARSET_COLLECTIONS "ISO8859-2 ISO8859-9 ISO8859-4 ISO10646-1"
BITS_PER_PIXEL 2
FONT_NAME "IndieFlower"
FACE_NAME "Indie Flower"
COPYRIGHT "Copyright (c) 2010, Kimberly Geswein (kimberlygeswein.com)"
FONT_VERSION "1.001 2010"
FONT_ASCENT 10
FONT_DESCENT 2
UNDERLINE_POSITION -1
UNDERLINE_THICKNESS 1
X_HEIGHT 4
CAP_HEIGHT 5
RAW_ASCENT 799
RAW_DESCENT 200
NORM_SPACE 5
RELATIVE_WEIGHT 40
RELATIVE_SETWIDTH 50
SUPERSCRIPT_X 0
SUPERSCRIPT_Y 5
SUPERSCRIPT_SIZE 7
SUBSCRIPT_X 0
SUBSCRIPT_Y 1
SUBSCRIPT_SIZE 7
AVG_LOWERCASE_WIDTH 53
AVG_UPPERCASE_WIDTH 64
ENDPROPERTIES
CHARS 356
STARTCHAR space
ENCODING 32
SWIDTH 375 0
DWIDTH 5 0
BBX 1 1 0 0
BITMAP
00
ENDCHAR
STARTCHAR exclam
ENCODING 33
SWIDTH 149 0
DWIDTH 2 0
BBX 2 10 0 0
BITMAP
40
80
80
80
80
80
40
00
00
90
ENDCHAR
STARTCHAR quotedbl
ENCODING 34
SWIDTH 234 0
DWIDTH 3 0
BBX 3 3 0 6
BITMAP
94
94
54
ENDCHAR
STARTCHAR numbersign
ENCODING 35
SWIDTH 768 0
DWIDTH 9 0
BBX 9 6 0 0
BITMAP
011000
016500
6AA500
41AE80
159400
005400
ENDCHAR
STARTCHAR dollar
ENCODING 36
SWIDTH 581 0
DWIDTH 7 0
BBX 7 11 0 0
BITMAP
0150
0290
0BA0
0A40
0680
02D0
0294
8248
2A48
0BA0
0640
ENDCHAR
STARTCHAR percent
ENCODING 37
SWIDTH 636 0
DWIDTH 8 0
BBX 8 7 0 0
BITMAP
1410
9850
8840
1614
0559
0888
1464
ENDCHAR
STARTCHAR ampersand
ENCODING 38
SWIDTH 457 0
DWIDTH 5 0
BBX 5 9 0 0
BITMAP
0400
1C00
1C00
1800
1580
2A00
5600
8A00
A440
ENDCHAR
STARTCHAR quotesingle
ENCODING 39
SWIDTH 102 0
DWIDTH 1 0
BBX 1 3 0 6
BITMAP
40
80
80
ENDCHAR
STARTCHAR parenleft
ENCODING 40
SWIDTH 421 0
DWIDTH 5 0
BBX 5 8 0 -1
BITMAP
0680
1800
2000
5000
8000
8000
6400
1400
ENDCHAR
STARTCHAR parenright
ENCODING 41
SWIDTH 290 0
DWIDTH 3 0
BBX 4 8 0 -1
BITMAP
64
08
08
05
08
14
60
40
ENDCHAR
STARTCHAR asterisk
ENCODING 42
SWIDTH 412 0
DWIDTH 5 0
BBX 5 4 0 3
BITMAP
6A40
6F00
7A00
1600
ENDCHAR
STARTCHAR plus
ENCODING 43
SWIDTH 459 0
DWIDTH 6 0
BBX 5 5 0 0
BITMAP
0800
0800
AE80
0800
0400
ENDCHAR
STARTCHAR comma
ENCODING 44
SWIDTH 130 0
DWIDTH 2 0
BBX 1 4 0 -2
BITMAP
40
80
80
80
ENDCHAR
STARTCHAR hyphen
ENCODING 45
SWIDTH 375 0
DWIDTH 5 0
BBX 4 1 0 3
BITMAP
6A
ENDCHAR
STARTCHAR period
ENCODING 46
SWIDTH 204 0
DWIDTH 2 0
BBX 2 2 0 0
BITMAP
70
60
ENDCHAR
STARTCHAR slash
ENCODING 47
SWIDTH 309 0
DWIDTH 4 0
BBX 4 9 0 0
BITMAP
01
05
08
08
14
20
20
90
80
ENDCHAR
STARTCHAR zero
ENCODING 48
SWIDTH 430 0
DWIDTH 5 0
BBX 5 5 0 0
BITMAP
1A00
5180
8080
4080
2A00
ENDCHAR
STARTCHAR one
ENCODING 49
SWIDTH 318 0
DWIDTH 4 0
BBX 4 7 0 0
BITMAP
02
05
1D
69
48
08
08
ENDCHAR
STARTCHAR two
ENCODING 50
SWIDTH 497 0
DWIDTH 6 0
BBX 6 7 0 0
BITMAP
0100
0580
0080
0080
0080
A640
6A90
ENDCHAR
STARTCHAR three
ENCODING 51
SWIDTH 430 0
DWIDTH 5 0
BBX 5 7 0 0
BITMAP
1400
5600
0600
2D00
0140
9080
2A40
ENDCHAR
STARTCHAR four
ENCODING 52
SWIDTH 412 0
DWIDTH 5 0
BBX 5 7 0 0
BITMAP
5000
8040
8080
8240
7E40
0180
0080
ENDCHAR
STARTCHAR five
ENCODING 53
SWIDTH 571 0
DWIDTH 7 0
BBX 7 8 0 0
BITMAP
06A4
0800
1800
1A40
0050
0020
8060
6A80
ENDCHAR
STARTCHAR six
ENCODING 54
SWIDTH 440 0
DWIDTH 5 0
BBX 5 7 0 0
BITMAP
0680
2400
5000
AA40
8080
9080
2A40
ENDCHAR
STARTCHAR seven
ENCODING 55
SWIDTH 412 0
DWIDTH 5 0
BBX 5 7 0 0
BITMAP
5500
1600
0200
1A40
1940
0800
0800
ENDCHAR
STARTCHAR eight
ENCODING 56
SWIDTH 375 0
DWIDTH 5 0
BBX 4 7 0 0
BITMAP
28
85
58
28
52
51
1A
ENDCHAR
STARTCHAR nine
ENCODING 57
SWIDTH 300 0
DWIDTH 4 0
BBX 4 7 0 0
BITMAP
68
85
89
1D
04
08
04
ENDCHAR
STARTCHAR colon
ENCODING 58
SWIDTH 84 0
DWIDTH 1 0
BBX 1 3 0 1
BITMAP
40
00
40
ENDCHAR
STARTCHAR semicolon
ENCODING 59
SWIDTH 128 0
DWIDTH 2 0
BBX 2 7 0 -2
BITMAP
40
40
00
40
50
80
80
ENDCHAR
STARTCHAR less
ENCODING 60
SWIDTH 487 0
DWIDTH 6 0
BBX 6 5 0 0
BITMAP
0090
0600
2400
A400
1A80
ENDCHAR
STARTCHAR equal
ENCODING 61
SWIDTH 524 0
DWIDTH 6 0
BBX 6 4 0 1
BITMAP
6A90
0010
1540
5550
ENDCHAR
STARTCHAR greater
ENCODING 62
SWIDTH 403 0
DWIDTH 5 0
BBX 5 6 0 0
BITMAP
4000
2900
0280
0240
1800
5000
ENDCHAR
STARTCHAR question
ENCODING 63
SWIDTH 272 0
DWIDTH 3 0
BBX 3 11 0 0
BITMAP
10
58
08
08
18
20
24
04
00
00
08
ENDCHAR
STARTCHAR at
ENCODING 64
SWIDTH 815 0
DWIDTH 10 0
BBX 10 11 0 0
BITMAP
01A400
180A00
200180
406450
424510
450850
850C80
566A40
214000
090000
01AA40
ENDCHAR
STARTCHAR A
ENCODING 65
SWIDTH 562 0
DWIDTH 7 0
BBX 7 9 0 0
BITMAP
1A80
2050
5020
4020
4014
A5A4
5014
5014
1014
ENDCHAR
STARTCHAR B
ENCODING 66
SWIDTH 741 0
DWIDTH 9 0
BBX 9 9 0 0
BITMAP
050000
6EA000
081400
056000
02B400
020600
020140
020180
02AA00
ENDCHAR
STARTCHAR C
ENCODING 67
SWIDTH 515 0
DWIDTH 6 0
BBX 6 8 0 0
BITMAP
0640
1840
2000
4000
8000
8000
5010
2A90
ENDCHAR
STARTCHAR D
ENCODING 68
SWIDTH 741 0
DWIDTH 9 0
BBX 9 8 0 0
BITMAP
194000
52A400
014500
004240
008180
008140
008200
02A900
ENDCHAR
STARTCHAR E
ENCODING 69
SWIDTH 524 0
DWIDTH 6 0
BBX 6 8 0 0
BITMAP
5540
9550
8000
9680
9000
8000
8000
6BD0
ENDCHAR
STARTCHAR F
ENCODING 70
SWIDTH 514 0
DWIDTH 6 0
BBX 7 8 0 0
BITMAP
0100
BAA8
1400
1400
6F90
0800
0800
0800
ENDCHAR
STARTCHAR G
ENCODING 71
SWIDTH 571 0
DWIDTH 7 0
BBX 7 8 0 -1
BITMAP
0010
0650
1400
5150
8154
5024
2A64
0014
ENDCHAR
STARTCHAR H
ENCODING 72
SWIDTH 524 0
DWIDTH 6 0
BBX 6 8 0 0
BITMAP
4020
8020
4020
51A0
6920
6020
2020
1020
ENDCHAR
STARTCHAR I
ENCODING 73
SWIDTH 167 0
DWIDTH 2 0
BBX 2 7 0 0
BITMAP
40
80
50
50
20
20
20
ENDCHAR
STARTCHAR J
ENCODING 74
SWIDTH 439 0
DWIDTH 5 0
BBX 5 8 0 0
BITMAP
0040
0080
0080
0080
8080
5080
1480
0680
ENDCHAR
STARTCHAR K
ENCODING 75
SWIDTH 468 0
DWIDTH 6 0
BBX 5 7 0 0
BITMAP
8200
8800
A000
6000
6400
5600
5080
ENDCHAR
STARTCHAR L
ENCODING 76
SWIDTH 346 0
DWIDTH 4 0
BBX 4 6 0 0
BITMAP
50
80
80
80
80
6A
ENDCHAR
STARTCHAR M
ENCODING 77
SWIDTH 534 0
DWIDTH 6 0
BBX 6 8 0 0
BITMAP
4000
9060
74A0
5A60
5020
5020
5020
5020
ENDCHAR
STARTCHAR N
ENCODING 78
SWIDTH 609 0
DWIDTH 7 0
BBX 7 7 0 0
BITMAP
4000
5020
6014
7008
9408
8908
81A0
ENDCHAR
STARTCHAR O
ENCODING 79
SWIDTH 609 0
DWIDTH 7 0
BBX 7 6 0 0
BITMAP
1A00
50A0
8014
8008
6008
1AA0
ENDCHAR
STARTCHAR P
ENCODING 80
SWIDTH 627 0
DWIDTH 8 0
BBX 8 8 0 0
BITMAP
0400
A6A0
4118
0105
0218
0390
0200
0100
ENDCHAR
STARTCHAR Q
ENCODING 81
SWIDTH 642 0
DWIDTH 8 0
BBX 8 9 0 -2
BITMAP
0500
25D0
40A4
8008
8145
2098
1AF4
0009
0001
ENDCHAR
STARTCHAR R
ENCODING 82
SWIDTH 579 0
DWIDTH 7 0
BBX 7 9 0 -1
BITMAP
1540
95A0
1024
25A0
1900
1D00
0A40
0460
0014
ENDCHAR
STARTCHAR S
ENCODING 83
SWIDTH 627 0
DWIDTH 8 0
BBX 8 7 0 0
BITMAP
0964
1400
0900
0190
4018
5009
1AA8
ENDCHAR
STARTCHAR T
ENCODING 84
SWIDTH 581 0
DWIDTH 7 0
BBX 8 7 0 0
BITMAP
5AAA
0140
0140
0080
0080
0080
0090
ENDCHAR
STARTCHAR U
ENCODING 85
SWIDTH 571 0
DWIDTH 7 0
BBX 7 7 0 0
BITMAP
1000
8020
8020
8020
5020
2074
1E44
ENDCHAR
STARTCHAR V
ENCODING 86
SWIDTH 421 0
DWIDTH 5 0
BBX 5 6 0 0
BITMAP
8080
6180
2140
1640
0A00
0500
ENDCHAR
STARTCHAR W
ENCODING 87
SWIDTH 703 0
DWIDTH 8 0
BBX 9 6 0 0
BITMAP
400500
800200
810200
824240
568200
286900
ENDCHAR
STARTCHAR X
ENCODING 88
SWIDTH 534 0
DWIDTH 6 0
BBX 6 7 0 -1
BITMAP
2020
1580
0A00
1A00
2140
9080
4000
ENDCHAR
STARTCHAR Y
ENCODING 89
SWIDTH 403 0
DWIDTH 5 0
BBX 5 8 0 0
BITMAP
4000
9080
2540
0B00
0200
0500
0800
0800
ENDCHAR
STARTCHAR Z
ENCODING 90
SWIDTH 571 0
DWIDTH 7 0
BBX 7 8 0 0
BITMAP
1400
5640
0080
0080
1BA0
0200
0800
0AA4
ENDCHAR
STARTCHAR bracketleft
ENCODING 91
SWIDTH 477 0
DWIDTH 6 0
BBX 7 10 0 -1
BITMAP
0150
6940
9000
5000
2000
2000
2000
2000
1000
1AA4
ENDCHAR
STARTCHAR backslash
ENCODING 92
SWIDTH 430 0
DWIDTH 5 0
BBX 5 7 0 0
BITMAP
4000
9000
2400
0C00
0600
0180
0080
ENDCHAR
STARTCHAR bracketright
ENCODING 93
SWIDTH 430 0
DWIDTH 5 0
BBX 5 11 0 -1
BITMAP
6A00
0240
0180
0080
0080
0080
0080
0080
0080
0080
2AC0
ENDCHAR
STARTCHAR asciicircum
ENCODING 94
SWIDTH 375 0
DWIDTH 5 0
BBX 4 3 0 6
BITMAP
08
29
51
ENDCHAR
STARTCHAR underscore
ENCODING 95
SWIDTH 656 0
DWIDTH 8 0
BBX 7 1 1 0
BITMAP
6AB4
ENDCHAR
STARTCHAR grave
ENCODING 96
SWIDTH 172 0
DWIDTH 2 0
BBX 2 2 0 5
BITMAP
40
10
ENDCHAR
STARTCHAR a
ENCODING 97
SWIDTH 505 0
DWIDTH 6 0
BBX 6 6 0 0
BITMAP
0A00
0080
1A90
90A0
8010
2A90
ENDCHAR
STARTCHAR b
ENCODING 98
SWIDTH 497 0
DWIDTH 6 0
BBX 6 8 0 0
BITMAP
4000
8000
8000
5000
7A40
5050
2020
1A90
ENDCHAR
STARTCHAR c
ENCODING 99
SWIDTH 449 0
DWIDTH 5 0
BBX 5 5 0 0
BITMAP
2A00
5000
8000
9000
2A80
ENDCHAR
STARTCHAR d
ENCODING 100
SWIDTH 524 0
DWIDTH 6 0
BBX 6 9 0 0
BITMAP
0080
00C0
0090
0090
2E60
91A0
80A0
91A0
2A10
ENDCHAR
STARTCHAR e
ENCODING 101
SWIDTH 515 0
DWIDTH 6 0
BBX 6 6 0 0
BITMAP
2600
5140
8600
9400
5000
1A90
ENDCHAR
STARTCHAR f
ENCODING 102
SWIDTH 376 0
DWIDTH 5 0
BBX 5 9 0 0
BITMAP
0500
1980
2000
2000
2000
BA00
1400
0800
0600
ENDCHAR
STARTCHAR g
ENCODING 103
SWIDTH 366 0
DWIDTH 4 0
BBX 7 11 -2 -6
BITMAP
0190
0520
0820
0874
02A4
0014
0014
0014
8014
2420
0690
ENDCHAR
STARTCHAR h
ENCODING 104
SWIDTH 427 0
DWIDTH 5 0
BBX 5 8 0 0
BITMAP
8000
8000
9400
6600
5140
5080
6080
2080
ENDCHAR
STARTCHAR i
ENCODING 105
SWIDTH 174 0
DWIDTH 2 0
BBX 2 7 0 0
BITMAP
40
00
50
50
60
20
20
ENDCHAR
STARTCHAR j
ENCODING 106
SWIDTH 200 0
DWIDTH 2 0
BBX 5 13 -2 -6
BITMAP
0400
0000
0100
0200
0200
0240
0140
0180
4080
2080
2480
0A80
0100
ENDCHAR
STARTCHAR k
ENCODING 107
SWIDTH 403 0
DWIDTH 5 0
BBX 5 7 0 0
BITMAP
8000
8100
8500
6400
6000
7400
5640
ENDCHAR
STARTCHAR l
ENCODING 108
SWIDTH 120 0
DWIDTH 1 0
BBX 1 7 0 0
BITMAP
80
80
80
80
80
80
80
ENDCHAR
STARTCHAR m
ENCODING 109
SWIDTH 750 0
DWIDTH 9 0
BBX 9 5 0 0
BITMAP
692A00
929140
818080
908080
400040
ENDCHAR
STARTCHAR n
ENCODING 110
SWIDTH 459 0
DWIDTH 6 0
BBX 6 5 0 0
BITMAP
5A00
9080
9080
5050
1050
ENDCHAR
STARTCHAR o
ENCODING 111
SWIDTH 487 0
DWIDTH 6 0
BBX 6 5 0 0
BITMAP
1A80
5090
8050
8090
2A40
ENDCHAR
STARTCHAR p
ENCODING 112
SWIDTH 520 0
DWIDTH 6 0
BBX 6 8 0 -4
BITMAP
2A90
9020
9460
9690
6000
6000
3000
2000
ENDCHAR
STARTCHAR q
ENCODING 113
SWIDTH 412 0
DWIDTH 5 0
BBX 5 10 0 -4
BITMAP
1A00
5140
8140
8240
5240
2B00
0140
0140
0140
0140
ENDCHAR
STARTCHAR r
ENCODING 114
SWIDTH 346 0
DWIDTH 4 0
BBX 4 6 0 0
BITMAP
05
96
80
80
50
20
ENDCHAR
STARTCHAR s
ENCODING 115
SWIDTH 514 0
DWIDTH 6 0
BBX 6 6 0 0
BITMAP
1500
5600
6100
1690
4020
2A90
ENDCHAR
STARTCHAR t
ENCODING 116
SWIDTH 328 0
DWIDTH 4 0
BBX 4 7 0 0
BITMAP
14
14
79
14
14
14
04
ENDCHAR
STARTCHAR u
ENCODING 117
SWIDTH 501 0
DWIDTH 6 0
BBX 6 6 0 -1
BITMAP
8040
8080
8080
61D0
2A20
0010
ENDCHAR
STARTCHAR v
ENCODING 118
SWIDTH 389 0
DWIDTH 5 0
BBX 5 5 0 0
BITMAP
4000
9140
2200
2900
0800
ENDCHAR
STARTCHAR w
ENCODING 119
SWIDTH 656 0
DWIDTH 8 0
BBX 8 5 0 0
BITMAP
8000
8144
8145
5285
2968
ENDCHAR
STARTCHAR x
ENCODING 120
SWIDTH 448 0
DWIDTH 5 0
BBX 5 6 0 -1
BITMAP
4040
6240
1C00
1A00
5180
0040
ENDCHAR
STARTCHAR y
ENCODING 121
SWIDTH 487 0
DWIDTH 6 0
BBX 6 11 0 -6
BITMAP
8040
8050
5050
20A0
1A20
0020
0020
0020
4050
2480
0A40
ENDCHAR
STARTCHAR z
ENCODING 122
SWIDTH 459 0
DWIDTH 6 0
BBX 5 7 0 0
BITMAP
0400
A600
0200
1740
6D00
2440
2E80
ENDCHAR
STARTCHAR braceleft
ENCODING 123
SWIDTH 393 0
DWIDTH 5 0
BBX 5 12 0 -1
BITMAP
0A00
6000
8000
8000
6000
1D00
6600
0200
1800
2000
1000
2A40
ENDCHAR
STARTCHAR bar
ENCODING 124
SWIDTH 149 0
DWIDTH 2 0
BBX 2 8 0 0
BITMAP
40
80
40
50
50
50
50
10
ENDCHAR
STARTCHAR braceright
ENCODING 125
SWIDTH 440 0
DWIDTH 5 0
BBX 5 15 0 -3
BITMAP
1400
9600
0140
0200
0800
2000
1E00
1400
0800
0200
0140
0080
0080
8180
6900
ENDCHAR
STARTCHAR asciitilde
ENCODING 126
SWIDTH 402 0
DWIDTH 5 0
BBX 5 2 0 5
BITMAP
1040
8A00
ENDCHAR
STARTCHAR nonbreakingspace
ENCODING 160
SWIDTH 375 0
DWIDTH 5 0
BBX 1 1 0 0
BITMAP
00
ENDCHAR
STARTCHAR exclamdown
ENCODING 161
SWIDTH 149 0
DWIDTH 2 0
BBX 2 8 0 0
BITMAP
90
00
40
40
40
40
40
40
ENDCHAR
STARTCHAR cent
ENCODING 162
SWIDTH 449 0
DWIDTH 5 0
BBX 5 7 0 -1
BITMAP
0800
2A40
8500
8500
9500
2E80
0400
ENDCHAR
STARTCHAR sterling
ENCODING 163
SWIDTH 758 0
DWIDTH 9 0
BBX 9 9 0 0
BITMAP
001A00
002180
004000
009400
1AD400
004000
010000
6B5000
B95000
ENDCHAR
STARTCHAR currency
ENCODING 164
SWIDTH 618 0
DWIDTH 7 0
BBX 7 7 0 0
BITMAP
4000
66E4
2414
2004
2024
2AA0
1010
ENDCHAR
STARTCHAR yen
ENCODING 165
SWIDTH 389 0
DWIDTH 5 0
BBX 5 9 0 0
BITMAP
5040
2140
2200
1900
0800
6E00
6D00
0800
0800
ENDCHAR
STARTCHAR brokenbar
ENCODING 166
SWIDTH 117 0
DWIDTH 1 0
BBX 1 7 0 0
BITMAP
40
80
80
40
80
80
80
ENDCHAR
STARTCHAR section
ENCODING 167
SWIDTH 514 0
DWIDTH 6 0
BBX 6 8 0 0
BITMAP
2A40
5050
2940
6460
6060
1A90
5020
2A90
ENDCHAR
STARTCHAR dieresis
ENCODING 168
SWIDTH 397 0
DWIDTH 5 0
BBX 3 2 1 5
BITMAP
44
98
ENDCHAR
STARTCHAR copyright
ENCODING 169
SWIDTH 667 0
DWIDTH 8 0
BBX 8 7 0 0
BITMAP
0690
2164
5559
8802
5802
26A6
1AA4
ENDCHAR
STARTCHAR ordfeminine
ENCODING 170
SWIDTH 266 0
DWIDTH 3 0
BBX 3 3 0 3
BITMAP
14
58
54
ENDCHAR
STARTCHAR guillemotleft
ENCODING 171
SWIDTH 755 0
DWIDTH 9 0
BBX 8 6 0 0
BITMAP
0001
0099
06A0
2640
A5A9
1680
ENDCHAR
STARTCHAR logicalnot
ENCODING 172
SWIDTH 369 0
DWIDTH 4 0
BBX 4 2 0 3
BITMAP
6A
01
ENDCHAR
STARTCHAR hyphen_
ENCODING 173
SWIDTH 375 0
DWIDTH 5 0
BBX 4 1 0 3
BITMAP
6A
ENDCHAR
STARTCHAR registered
ENCODING 174
SWIDTH 708 0
DWIDTH 9 0
BBX 8 7 0 0
BITMAP
0A90
2568
5525
8652
5242
2569
0AA4
ENDCHAR
STARTCHAR macron
ENCODING 175
SWIDTH 287 0
DWIDTH 3 0
BBX 3 2 0 5
BITMAP
14
54
ENDCHAR
STARTCHAR degree
ENCODING 176
SWIDTH 254 0
DWIDTH 3 0
BBX 3 4 0 3
BITMAP
10
54
44
64
ENDCHAR
STARTCHAR plusminus
ENCODING 177
SWIDTH 459 0
DWIDTH 6 0
BBX 5 6 0 0
BITMAP
0400
0800
6E80
4900
0940
2540
ENDCHAR
STARTCHAR twosuperior
ENCODING 178
SWIDTH 296 0
DWIDTH 4 0
BBX 3 4 0 3
BITMAP
14
04
04
A8
ENDCHAR
STARTCHAR threesuperior
ENCODING 179
SWIDTH 204 0
DWIDTH 2 0
BBX 3 4 0 3
BITMAP
50
60
14
54
ENDCHAR
STARTCHAR acute
ENCODING 180
SWIDTH 180 0
DWIDTH 2 0
BBX 2 2 0 5
BITMAP
10
90
ENDCHAR
STARTCHAR mu
ENCODING 181
SWIDTH 501 0
DWIDTH 6 0
BBX 6 7 0 -1
BITMAP
4000
8080
8080
90C0
A690
9920
4000
ENDCHAR
STARTCHAR paragraph
ENCODING 182
SWIDTH 413 0
DWIDTH 5 0
BBX 5 6 0 0
BITMAP
7F40
BE40
AD80
0580
0580
0540
ENDCHAR
STARTCHAR periodcentered
ENCODING 183
SWIDTH 212 0
DWIDTH 3 0
BBX 2 2 0 2
BITMAP
10
60
ENDCHAR
STARTCHAR cedilla
ENCODING 184
SWIDTH 445 0
DWIDTH 5 0
BBX 3 4 2 -4
BITMAP
80
64
48
64
ENDCHAR
STARTCHAR onesuperior
ENCODING 185
SWIDTH 197 0
DWIDTH 2 0
BBX 2 5 0 3
BITMAP
10
20
60
60
10
ENDCHAR
STARTCHAR ordmasculine
ENCODING 186
SWIDTH 254 0
DWIDTH 3 0
BBX 3 4 0 3
BITMAP
10
54
44
64
ENDCHAR
STARTCHAR guillemotright
ENCODING 187
SWIDTH 659 0
DWIDTH 8 0
BBX 8 6 0 0
BITMAP
4200
29A8
0289
0264
1990
5200
ENDCHAR
STARTCHAR onequarter
ENCODING 188
SWIDTH 626 0
DWIDTH 8 0
BBX 7 9 0 0
BITMAP
0500
1500
6500
5100
1540
0940
0908
04A8
1008
ENDCHAR
STARTCHAR onehalf
ENCODING 189
SWIDTH 566 0
DWIDTH 7 0
BBX 7 10 0 -1
BITMAP
0400
0540
2500
9600
1250
1510
0810
0910
0AA4
1000
ENDCHAR
STARTCHAR threequarters
ENCODING 190
SWIDTH 566 0
DWIDTH 7 0
BBX 7 9 0 -1
BITMAP
0140
5100
6100
0640
5A44
0554
08A4
0804
1400
ENDCHAR
STARTCHAR questiondown
ENCODING 191
SWIDTH 272 0
DWIDTH 3 0
BBX 4 9 0 0
BITMAP
40
00
00
64
14
20
90
80
29
ENDCHAR
STARTCHAR Agrave
ENCODING 192
SWIDTH 562 0
DWIDTH 7 0
BBX 7 11 0 0
BITMAP
0500
0200
1A80
2050
5020
4020
4014
A5A4
5014
5014
1014
ENDCHAR
STARTCHAR Aacute
ENCODING 193
SWIDTH 562 0
DWIDTH 7 0
BBX 7 12 0 0
BITMAP
0100
0800
0000
1A80
2050
5020
4020
4014
A5A4
5014
5014
1014
ENDCHAR
STARTCHAR Acircumflex
ENCODING 194
SWIDTH 562 0
DWIDTH 7 0
BBX 7 12 0 0
BITMAP
0500
0B40
1540
1A80
2050
5020
4020
4014
A5A4
5014
5014
1014
ENDCHAR
STARTCHAR Atilde
ENCODING 195
SWIDTH 562 0
DWIDTH 7 0
BBX 7 11 0 0
BITMAP
1440
2640
1A80
2050
5020
4020
4014
A5A4
5014
5014
1014
ENDCHAR
STARTCHAR Adieresis
ENCODING 196
SWIDTH 562 0
DWIDTH 7 0
BBX 7 11 0 0
BITMAP
1980
0000
1A80
2050
5020
4020
4014
A5A4
5014
5014
1014
ENDCHAR
STARTCHAR Aring
ENCODING 197
SWIDTH 562 0
DWIDTH 7 0
BBX 7 11 0 0
BITMAP
0600
0A00
1A80
2050
5020
4020
4014
A5A4
5014
5014
1014
ENDCHAR
STARTCHAR AE
ENCODING 198
SWIDTH 960 0
DWIDTH 12 0
BBX 11 9 0 0
BITMAP
1A8000
205554
502954
402800
4019A4
A5A800
501400
501400
101AB8
ENDCHAR
STARTCHAR Ccedilla
ENCODING 199
SWIDTH 515 0
DWIDTH 6 0
BBX 6 12 0 -4
BITMAP
0640
1840
2000
4000
8000
8000
5010
2A90
1400
0640
0480
0600
ENDCHAR
STARTCHAR Egrave
ENCODING 200
SWIDTH 524 0
DWIDTH 6 0
BBX 6 10 0 0
BITMAP
0400
0100
5540
9550
8000
9680
9000
8000
8000
6BD0
ENDCHAR
STARTCHAR Eacute
ENCODING 201
SWIDTH 524 0
DWIDTH 6 0
BBX 6 10 0 0
BITMAP
0100
0900
5540
9550
8000
9680
9000
8000
8000
6BD0
ENDCHAR
STARTCHAR Ecircumflex
ENCODING 202
SWIDTH 524 0
DWIDTH 6 0
BBX 6 11 0 0
BITMAP
0200
0A40
1440
5540
9550
8000
9680
9000
8000
8000
6BD0
ENDCHAR
STARTCHAR Edieresis
ENCODING 203
SWIDTH 524 0
DWIDTH 6 0
BBX 6 9 0 0
BITMAP
1940
5540
9550
8000
9680
9000
8000
8000
6BD0
ENDCHAR
STARTCHAR Igrave
ENCODING 204
SWIDTH 167 0
DWIDTH 2 0
BBX 2 10 0 0
BITMAP
40
50
00
40
80
50
50
20
20
20
ENDCHAR
STARTCHAR Iacute
ENCODING 205
SWIDTH 167 0
DWIDTH 2 0
BBX 2 9 0 0
BITMAP
10
80
40
80
50
50
20
20
20
ENDCHAR
STARTCHAR Icircumflex
ENCODING 206
SWIDTH 167 0
DWIDTH 2 0
BBX 4 11 -1 0
BITMAP
14
2D
51
00
10
20
14
14
08
08
08
ENDCHAR
STARTCHAR Idieresis
ENCODING 207
SWIDTH 167 0
DWIDTH 2 0
BBX 3 9 -1 0
BITMAP
40
98
10
20
14
14
08
08
08
ENDCHAR
STARTCHAR Eth
ENCODING 208
SWIDTH 741 0
DWIDTH 9 0
BBX 9 8 0 0
BITMAP
194000
52A400
014500
019240
019580
008140
008200
02A900
ENDCHAR
STARTCHAR Ntilde
ENCODING 209
SWIDTH 609 0
DWIDTH 7 0
BBX 7 9 0 0
BITMAP
0510
1590
4000
5020
6014
7008
9408
8908
81A0
ENDCHAR
STARTCHAR Ograve
ENCODING 210
SWIDTH 609 0
DWIDTH 7 0
BBX 7 9 0 0
BITMAP
0100
0140
0000
1A00
50A0
8014
8008
6008
1AA0
ENDCHAR
STARTCHAR Oacute
ENCODING 211
SWIDTH 609 0
DWIDTH 7 0
BBX 7 9 0 0
BITMAP
0100
0600
0000
1A00
50A0
8014
8008
6008
1AA0
ENDCHAR
STARTCHAR Ocircumflex
ENCODING 212
SWIDTH 609 0
DWIDTH 7 0
BBX 7 9 0 0
BITMAP
0400
1A00
1100
1A00
50A0
8014
8008
6008
1AA0
ENDCHAR
STARTCHAR Otilde
ENCODING 213
SWIDTH 609 0
DWIDTH 7 0
BBX 7 8 0 0
BITMAP
1440
2640
2A00
50A0
8014
8008
6008
1AA0
ENDCHAR
STARTCHAR Odieresis
ENCODING 214
SWIDTH 609 0
DWIDTH 7 0
BBX 7 9 0 0
BITMAP
0040
0980
0000
1A00
50A0
8014
8008
6008
1AA0
ENDCHAR
STARTCHAR multiply
ENCODING 215
SWIDTH 448 0
DWIDTH 5 0
BBX 4 3 0 1
BITMAP
62
1C
26
ENDCHAR
STARTCHAR Oslash
ENCODING 216
SWIDTH 609 0
DWIDTH 7 0
BBX 7 9 0 -1
BITMAP
0040
0080
1A80
52A0
8214
8508
6808
1EA0
1400
ENDCHAR
STARTCHAR Ugrave
ENCODING 217
SWIDTH 571 0
DWIDTH 7 0
BBX 7 9 0 0
BITMAP
0100
0140
1000
8020
8020
8020
5020
2074
1E44
ENDCHAR
STARTCHAR Uacute
ENCODING 218
SWIDTH 571 0
DWIDTH 7 0
BBX 7 9 0 0
BITMAP
0100
0500
1000
8020
8020
8020
5020
2074
1E44
ENDCHAR
STARTCHAR Ucircumflex
ENCODING 219
SWIDTH 571 0
DWIDTH 7 0
BBX 7 11 0 0
BITMAP
0200
0680
0440
0000
1000
8020
8020
8020
5020
2074
1E44
ENDCHAR
STARTCHAR Udieresis
ENCODING 220
SWIDTH 571 0
DWIDTH 7 0
BBX 7 9 0 0
BITMAP
0440
0880
1000
8020
8020
8020
5020
2074
1E44
ENDCHAR
STARTCHAR Yacute
ENCODING 221
SWIDTH 403 0
DWIDTH 5 0
BBX 5 10 0 0
BITMAP
0100
0900
4000
9080
2540
0B00
0200
0500
0800
0800
ENDCHAR
STARTCHAR Thorn
ENCODING 222
SWIDTH 497 0
DWIDTH 6 0
BBX 6 9 0 -2
BITMAP
5000
5000
5000
7A40
5050
6020
2A90
1000
1000
ENDCHAR
STARTCHAR germandbls
ENCODING 223
SWIDTH 590 0
DWIDTH 7 0
BBX 7 11 0 -2
BITMAP
1400
A600
9140
5600
5740
5060
1008
2018
2690
2000
1000
ENDCHAR
STARTCHAR agrave
ENCODING 224
SWIDTH 505 0
DWIDTH 6 0
BBX 6 8 0 0
BITMAP
0400
0500
0A00
0080
1A90
90A0
8010
2A90
ENDCHAR
STARTCHAR aacute
ENCODING 225
SWIDTH 505 0
DWIDTH 6 0
BBX 6 9 0 0
BITMAP
0100
0800
0000
0A00
0080
1A90
90A0
8010
2A90
ENDCHAR
STARTCHAR acircumflex
ENCODING 226
SWIDTH 505 0
DWIDTH 6 0
BBX 6 9 0 0
BITMAP
0500
0B40
1440
0A00
0080
1A90
90A0
8010
2A90
ENDCHAR
STARTCHAR atilde
ENCODING 227
SWIDTH 505 0
DWIDTH 6 0
BBX 6 9 0 0
BITMAP
1440
1640
0000
0A00
0080
1A90
90A0
8010
2A90
ENDCHAR
STARTCHAR adieresis
ENCODING 228
SWIDTH 505 0
DWIDTH 6 0
BBX 6 7 0 0
BITMAP
1940
0A00
0080
1A90
90A0
8010
2A90
ENDCHAR
STARTCHAR aring
ENCODING 229
SWIDTH 505 0
DWIDTH 6 0
BBX 6 8 0 0
BITMAP
0500
0600
0A00
0080
1A90
90A0
8010
2A90
ENDCHAR
STARTCHAR ae
ENCODING 230
SWIDTH 881 0
DWIDTH 11 0
BBX 10 7 0 -1
BITMAP
0A0A40
00A080
1AA180
90A900
802000
2A9A50
000040
ENDCHAR
STARTCHAR ccedilla
ENCODING 231
SWIDTH 449 0
DWIDTH 5 0
BBX 5 10 0 -4
BITMAP
0400
2640
8000
8000
9000
2A80
1400
0640
1480
0500
ENDCHAR
STARTCHAR egrave
ENCODING 232
SWIDTH 515 0
DWIDTH 6 0
BBX 6 8 0 0
BITMAP
0400
0900
2600
5140
8600
9400
5000
1A90
ENDCHAR
STARTCHAR eacute
ENCODING 233
SWIDTH 515 0
DWIDTH 6 0
BBX 6 9 0 0
BITMAP
0100
0800
0400
2600
5140
8600
9400
5000
1A90
ENDCHAR
STARTCHAR ecircumflex
ENCODING 234
SWIDTH 515 0
DWIDTH 6 0
BBX 6 9 0 0
BITMAP
0100
0B40
1440
2600
5140
8600
9400
5000
1A90
ENDCHAR
STARTCHAR edieresis
ENCODING 235
SWIDTH 515 0
DWIDTH 6 0
BBX 6 7 0 0
BITMAP
1640
2600
5140
8600
9400
5000
1A90
ENDCHAR
STARTCHAR igrave
ENCODING 236
SWIDTH 174 0
DWIDTH 2 0
BBX 2 7 0 0
BITMAP
50
10
50
50
60
20
20
ENDCHAR
STARTCHAR iacute
ENCODING 237
SWIDTH 174 0
DWIDTH 2 0
BBX 2 8 0 0
BITMAP
10
90
40
50
50
60
20
20
ENDCHAR
STARTCHAR icircumflex
ENCODING 238
SWIDTH 174 0
DWIDTH 2 0
BBX 4 9 -1 0
BITMAP
14
2D
51
00
14
14
18
08
08
ENDCHAR
STARTCHAR idieresis
ENCODING 239
SWIDTH 174 0
DWIDTH 2 0
BBX 4 7 -1 0
BITMAP
59
00
14
14
18
08
08
ENDCHAR
STARTCHAR eth
ENCODING 240
SWIDTH 407 0
DWIDTH 5 0
BBX 5 7 0 0
BITMAP
1000
5940
1B40
1640
5180
8080
6A40
ENDCHAR
STARTCHAR ntilde
ENCODING 241
SWIDTH 459 0
DWIDTH 6 0
BBX 6 8 0 0
BITMAP
1040
8A00
0000
5A00
9080
9080
5050
1050
ENDCHAR
STARTCHAR ograve
ENCODING 242
SWIDTH 487 0
DWIDTH 6 0
BBX 6 7 0 0
BITMAP
0400
0200
1A80
5090
8050
8090
2A40
ENDCHAR
STARTCHAR oacute
ENCODING 243
SWIDTH 487 0
DWIDTH 6 0
BBX 6 8 0 0
BITMAP
0100
0800
0000
1A80
5090
8050
8090
2A40
ENDCHAR
STARTCHAR ocircumflex
ENCODING 244
SWIDTH 487 0
DWIDTH 6 0
BBX 6 8 0 0
BITMAP
0500
0B00
1140
1A80
5090
8050
8090
2A40
ENDCHAR
STARTCHAR otilde
ENCODING 245
SWIDTH 487 0
DWIDTH 6 0
BBX 6 7 0 0
BITMAP
1440
2640
2A80
5090
8050
8090
2A40
ENDCHAR
STARTCHAR odieresis
ENCODING 246
SWIDTH 487 0
DWIDTH 6 0
BBX 6 6 0 0
BITMAP
1640
1A80
5090
8050
8090
2A40
ENDCHAR
STARTCHAR divide
ENCODING 247
SWIDTH 335 0
DWIDTH 4 0
BBX 4 2 0 2
BITMAP
14
55
ENDCHAR
STARTCHAR oslash
ENCODING 248
SWIDTH 487 0
DWIDTH 6 0
BBX 6 6 0 0
BITMAP
0040
1B80
5290
8850
A490
7A40
ENDCHAR
STARTCHAR ugrave
ENCODING 249
SWIDTH 501 0
DWIDTH 6 0
BBX 6 9 0 -1
BITMAP
1400
0800
0000
8040
8080
8080
61D0
2A20
0010
ENDCHAR
STARTCHAR uacute
ENCODING 250
SWIDTH 501 0
DWIDTH 6 0
BBX 6 10 0 -1
BITMAP
0100
0800
0000
0000
8040
8080
8080
61D0
2A20
0010
ENDCHAR
STARTCHAR ucircumflex
ENCODING 251
SWIDTH 501 0
DWIDTH 6 0
BBX 6 10 0 -1
BITMAP
0500
0B40
1440
0000
8040
8080
8080
61D0
2A20
0010
ENDCHAR
STARTCHAR udieresis
ENCODING 252
SWIDTH 501 0
DWIDTH 6 0
BBX 6 9 0 -1
BITMAP
0100
2600
0000
8040
8080
8080
61D0
2A20
0010
ENDCHAR
STARTCHAR yacute
ENCODING 253
SWIDTH 487 0
DWIDTH 6 0
BBX 6 14 0 -6
BITMAP
0100
0800
0000
8040
8050
5050
20A0
1A20
0020
0020
0020
4050
2480
0A40
ENDCHAR
STARTCHAR thorn
ENCODING 254
SWIDTH 520 0
DWIDTH 6 0
BBX 6 8 0 -2
BITMAP
5000
8540
A5A0
9020
A560
9540
8000
8000
ENDCHAR
STARTCHAR ydieresis
ENCODING 255
SWIDTH 487 0
DWIDTH 6 0
BBX 6 14 0 -6
BITMAP
0100
2600
0000
8040
8050
5050
20A0
1A20
0020
0020
0020
4050
2480
0A40
ENDCHAR
STARTCHAR Amacron
ENCODING 256
SWIDTH 562 0
DWIDTH 7 0
BBX 7 11 0 0
BITMAP
0500
1500
1A80
2050
5020
4020
4014
A5A4
5014
5014
1014
ENDCHAR
STARTCHAR amacron
ENCODING 257
SWIDTH 505 0
DWIDTH 6 0
BBX 6 8 0 0
BITMAP
0500
1500
0A00
0080
1A90
90A0
8010
2A90
ENDCHAR
STARTCHAR Abreve
ENCODING 258
SWIDTH 562 0
DWIDTH 7 0
BBX 7 11 0 0
BITMAP
0540
0100
1A80
2050
5020
4020
4014
A5A4
5014
5014
1014
ENDCHAR
STARTCHAR abreve
ENCODING 259
SWIDTH 505 0
DWIDTH 6 0
BBX 6 8 0 0
BITMAP
0600
0000
0A00
0080
1A90
90A0
8010
2A90
ENDCHAR
STARTCHAR Aogonek
ENCODING 260
SWIDTH 562 0
DWIDTH 7 0
BBX 7 11 0 -2
BITMAP
1A80
2050
5020
4020
4014
A5A4
5014
5014
1024
0080
0054
ENDCHAR
STARTCHAR aogonek
ENCODING 261
SWIDTH 505 0
DWIDTH 6 0
BBX 6 8 0 -2
BITMAP
0A00
0080
1A90
90A0
8010
2B90
0200
0050
ENDCHAR
STARTCHAR Cacute
ENCODING 262
SWIDTH 515 0
DWIDTH 6 0
BBX 6 9 0 0
BITMAP
0600
0640
1840
2000
4000
8000
8000
5010
2A90
ENDCHAR
STARTCHAR cacute
ENCODING 263
SWIDTH 449 0
DWIDTH 5 0
BBX 5 8 0 0
BITMAP
0100
0900
0000
2A00
5000
8000
9000
2A80
ENDCHAR
STARTCHAR Ccircumflex
ENCODING 264
SWIDTH 515 0
DWIDTH 6 0
BBX 6 11 0 0
BITMAP
0100
0B40
1440
0640
1840
2000
4000
8000
8000
5010
2A90
ENDCHAR
STARTCHAR ccircumflex
ENCODING 265
SWIDTH 449 0
DWIDTH 5 0
BBX 5 9 0 0
BITMAP
0500
0B00
1140
0000
2A00
5000
8000
9000
2A80
ENDCHAR
STARTCHAR Cdotaccent
ENCODING 266
SWIDTH 515 0
DWIDTH 6 0
BBX 6 10 0 0
BITMAP
0100
0100
0640
1840
2000
4000
8000
8000
5010
2A90
ENDCHAR
STARTCHAR cdotaccent
ENCODING 267
SWIDTH 449 0
DWIDTH 5 0
BBX 5 7 0 0
BITMAP
0400
0400
2A00
5000
8000
9000
2A80
ENDCHAR
STARTCHAR Ccaron
ENCODING 268
SWIDTH 515 0
DWIDTH 6 0
BBX 6 10 0 0
BITMAP
0400
0680
0640
1840
2000
4000
8000
8000
5010
2A90
ENDCHAR
STARTCHAR ccaron
ENCODING 269
SWIDTH 449 0
DWIDTH 5 0
BBX 5 7 0 0
BITMAP
0A00
0000
2A00
5000
8000
9000
2A80
ENDCHAR
STARTCHAR Dcaron
ENCODING 270
SWIDTH 741 0
DWIDTH 9 0
BBX 9 10 0 0
BITMAP
001000
01A000
194000
52A400
014500
004240
008180
008140
008200
02A900
ENDCHAR
STARTCHAR dcaron
ENCODING 271
SWIDTH 582 0
DWIDTH 7 0
BBX 7 9 0 0
BITMAP
0084
00C8
0098
0090
2E60
91A0
80A0
91A0
2A10
ENDCHAR
STARTCHAR Dcroat
ENCODING 272
SWIDTH 741 0
DWIDTH 9 0
BBX 9 8 0 0
BITMAP
194000
52A400
014500
018240
06D180
008140
008200
02A900
ENDCHAR
STARTCHAR dcroat
ENCODING 273
SWIDTH 524 0
DWIDTH 6 0
BBX 7 9 0 0
BITMAP
0040
00C0
06E4
1450
7AA0
90A0
80A0
91A0
2A10
ENDCHAR
STARTCHAR Emacron
ENCODING 274
SWIDTH 524 0
DWIDTH 6 0
BBX 6 9 0 0
BITMAP
0540
6A40
9550
8000
9680
9000
8000
8000
6BD0
ENDCHAR
STARTCHAR emacron
ENCODING 275
SWIDTH 515 0
DWIDTH 6 0
BBX 6 8 0 0
BITMAP
0540
1500
2600
5140
8600
9400
5000
1A90
ENDCHAR
STARTCHAR Ebreve
ENCODING 276
SWIDTH 524 0
DWIDTH 6 0
BBX 6 9 0 0
BITMAP
0A00
5540
9550
8000
9680
9000
8000
8000
6BD0
ENDCHAR
STARTCHAR ebreve
ENCODING 277
SWIDTH 515 0
DWIDTH 6 0
BBX 6 8 0 0
BITMAP
0540
0500
2600
5140
8600
9400
5000
1A90
ENDCHAR
STARTCHAR Edotaccent
ENCODING 278
SWIDTH 524 0
DWIDTH 6 0
BBX 6 9 0 0
BITMAP
0400
5540
9550
8000
9680
9000
8000
8000
6BD0
ENDCHAR
STARTCHAR edotaccent
ENCODING 279
SWIDTH 515 0
DWIDTH 6 0
BBX 6 8 0 0
BITMAP
0400
0400
2600
5140
8600
9400
5000
1A90
ENDCHAR
STARTCHAR Eogonek
ENCODING 280
SWIDTH 524 0
DWIDTH 6 0
BBX 6 10 0 -2
BITMAP
5540
9550
8000
9680
9000
8000
8000
6BD0
0200
0150
ENDCHAR
STARTCHAR eogonek
ENCODING 281
SWIDTH 515 0
DWIDTH 6 0
BBX 6 8 0 -2
BITMAP
2600
5140
8600
9400
5000
1A90
0200
0140
ENDCHAR
STARTCHAR Ecaron
ENCODING 282
SWIDTH 524 0
DWIDTH 6 0
BBX 6 10 0 0
BITMAP
0040
0640
5540
9550
8000
9680
9000
8000
8000
6BD0
ENDCHAR
STARTCHAR ecaron
ENCODING 283
SWIDTH 515 0
DWIDTH 6 0
BBX 6 9 0 0
BITMAP
0040
0A40
0000
2600
5140
8600
9400
5000
1A90
ENDCHAR
STARTCHAR Gcircumflex
ENCODING 284
SWIDTH 571 0
DWIDTH 7 0
BBX 7 11 0 -1
BITMAP
0080
01A0
0110
0010
0650
1400
5150
8154
5024
2A64
0014
ENDCHAR
STARTCHAR gcircumflex
ENCODING 285
SWIDTH 366 0
DWIDTH 4 0
BBX 7 15 -2 -6
BITMAP
0080
0290
0510
0000
0190
0520
0820
0874
02A4
0014
0014
0014
8014
2420
0690
ENDCHAR
STARTCHAR Gbreve
ENCODING 286
SWIDTH 571 0
DWIDTH 7 0
BBX 7 9 0 -1
BITMAP
0540
0010
0650
1400
5150
8154
5024
2A64
0014
ENDCHAR
STARTCHAR gbreve
ENCODING 287
SWIDTH 366 0
DWIDTH 4 0
BBX 7 13 -2 -6
BITMAP
0180
0000
0190
0520
0820
0874
02A4
0014
0014
0014
8014
2420
0690
ENDCHAR
STARTCHAR Gdotaccent
ENCODING 288
SWIDTH 571 0
DWIDTH 7 0
BBX 7 9 0 -1
BITMAP
0040
0050
0650
1400
5150
8154
5024
2A64
0014
ENDCHAR
STARTCHAR gdotaccent
ENCODING 289
SWIDTH 366 0
DWIDTH 4 0
BBX 7 13 -2 -6
BITMAP
0040
0040
0190
0520
0820
0874
02A4
0014
0014
0014
8014
2420
0690
ENDCHAR
STARTCHAR Gcommaaccent
ENCODING 290
SWIDTH 571 0
DWIDTH 7 0
BBX 7 11 0 -4
BITMAP
0010
0650
1400
5150
8154
5024
2A64
0014
0200
0200
0100
ENDCHAR
STARTCHAR gcommaaccent
ENCODING 291
SWIDTH 366 0
DWIDTH 4 0
BBX 7 17 -2 -6
BITMAP
0040
0080
0080
0000
0000
0000
0190
0520
0820
0874
02A4
0014
0014
0014
8014
2420
0690
ENDCHAR
STARTCHAR Hcircumflex
ENCODING 292
SWIDTH 524 0
DWIDTH 6 0
BBX 6 12 0 0
BITMAP
0100
0A40
1440
0000
4020
8020
4020
51A0
6920
6020
2020
1020
ENDCHAR
STARTCHAR hcircumflex
ENCODING 293
SWIDTH 427 0
DWIDTH 5 0
BBX 5 10 0 0
BITMAP
0500
0B00
9140
8000
9400
6600
5140
5080
6080
2080
ENDCHAR
STARTCHAR hbar
ENCODING 295
SWIDTH 427 0
DWIDTH 5 0
BBX 6 8 -1 0
BITMAP
2000
7800
6500
1980
1450
1420
1820
0820
ENDCHAR
STARTCHAR Itilde
ENCODING 296
SWIDTH 167 0
DWIDTH 2 0
BBX 4 9 -1 0
BITMAP
51
99
10
20
14
14
08
08
08
ENDCHAR
STARTCHAR itilde
ENCODING 297
SWIDTH 174 0
DWIDTH 2 0
BBX 5 8 -1 0
BITMAP
6540
4500
0000
1400
1400
1800
0800
0800
ENDCHAR
STARTCHAR imacron
ENCODING 299
SWIDTH 174 0
DWIDTH 2 0
BBX 4 8 -1 0
BITMAP
14
65
00
14
14
18
08
08
ENDCHAR
STARTCHAR Ibreve
ENCODING 300
SWIDTH 167 0
DWIDTH 2 0
BBX 2 9 0 0
BITMAP
60
00
40
80
50
50
20
20
20
ENDCHAR
STARTCHAR ibreve
ENCODING 301
SWIDTH 174 0
DWIDTH 2 0
BBX 2 7 0 0
BITMAP
A0
00
50
50
60
20
20
ENDCHAR
STARTCHAR Iogonek
ENCODING 302
SWIDTH 167 0
DWIDTH 2 0
BBX 2 9 0 -2
BITMAP
40
80
50
50
20
20
60
80
50
ENDCHAR
STARTCHAR iogonek
ENCODING 303
SWIDTH 174 0
DWIDTH 2 0
BBX 2 9 0 -2
BITMAP
40
00
50
50
60
20
60
80
90
ENDCHAR
STARTCHAR Idotaccent
ENCODING 304
SWIDTH 167 0
DWIDTH 2 0
BBX 2 9 0 0
BITMAP
40
40
40
80
50
50
20
20
20
ENDCHAR
STARTCHAR dotlessi
ENCODING 305
SWIDTH 174 0
DWIDTH 2 0
BBX 2 5 0 0
BITMAP
50
50
60
20
20
ENDCHAR
STARTCHAR Jcircumflex
ENCODING 308
SWIDTH 439 0
DWIDTH 5 0
BBX 6 12 0 0
BITMAP
0140
02D0
0510
0000
0040
0080
0080
0080
8080
5080
1480
0680
ENDCHAR
STARTCHAR jcircumflex
ENCODING 309
SWIDTH 200 0
DWIDTH 2 0
BBX 5 15 -2 -6
BITMAP
0200
0A40
1440
0000
0100
0200
0200
0240
0140
0180
4080
2080
2480
0A80
0100
ENDCHAR
STARTCHAR Kcommaaccent
ENCODING 310
SWIDTH 468 0
DWIDTH 6 0
BBX 5 11 0 -4
BITMAP
8200
8800
A000
6000
6400
5600
5080
0000
0400
0500
0400
ENDCHAR
STARTCHAR kcommaaccent
ENCODING 311
SWIDTH 403 0
DWIDTH 5 0
BBX 5 11 0 -4
BITMAP
8000
8100
8500
6400
6000
7400
5640
0000
0800
0800
0400
ENDCHAR
STARTCHAR Lacute
ENCODING 313
SWIDTH 346 0
DWIDTH 4 0
BBX 4 9 0 0
BITMAP
01
08
00
50
80
80
80
80
6A
ENDCHAR
STARTCHAR lacute
ENCODING 314
SWIDTH 120 0
DWIDTH 1 0
BBX 2 10 0 0
BITMAP
10
80
00
80
80
80
80
80
80
80
ENDCHAR
STARTCHAR Lcommaaccent
ENCODING 315
SWIDTH 346 0
DWIDTH 4 0
BBX 4 10 0 -4
BITMAP
50
80
80
80
80
6A
00
14
14
14
ENDCHAR
STARTCHAR lcommaaccent
ENCODING 316
SWIDTH 120 0
DWIDTH 1 0
BBX 1 11 0 -4
BITMAP
80
80
80
80
80
80
80
00
80
80
80
ENDCHAR
STARTCHAR Lcaron
ENCODING 317
SWIDTH 346 0
DWIDTH 4 0
BBX 4 9 0 0
BITMAP
04
08
08
50
80
80
80
80
6A
ENDCHAR
STARTCHAR lcaron
ENCODING 318
SWIDTH 222 0
DWIDTH 3 0
BBX 3 9 0 0
BITMAP
10
14
94
80
80
80
80
80
80
ENDCHAR
STARTCHAR Ldot
ENCODING 319
SWIDTH 346 0
DWIDTH 4 0
BBX 4 6 0 0
BITMAP
50
80
94
98
80
6A
ENDCHAR
STARTCHAR ldot
ENCODING 320
SWIDTH 333 0
DWIDTH 4 0
BBX 4 7 0 0
BITMAP
80
80
80
84
89
80
80
ENDCHAR
STARTCHAR Lslash
ENCODING 321
SWIDTH 346 0
DWIDTH 4 0
BBX 5 7 0 0
BITMAP
1000
2000
2000
2000
A000
6000
2A40
ENDCHAR
STARTCHAR lslash
ENCODING 322
SWIDTH 120 0
DWIDTH 1 0
BBX 3 7 -1 0
BITMAP
20
20
28
34
64
24
10
ENDCHAR
STARTCHAR Nacute
ENCODING 323
SWIDTH 609 0
DWIDTH 7 0
BBX 7 9 0 0
BITMAP
0100
0600
4000
5020
6014
7008
9408
8908
81A0
ENDCHAR
STARTCHAR nacute
ENCODING 324
SWIDTH 459 0
DWIDTH 6 0
BBX 6 9 0 0
BITMAP
0400
1800
0000
0000
5A00
9080
9080
5050
1050
ENDCHAR
STARTCHAR Ncommaaccent
ENCODING 325
SWIDTH 609 0
DWIDTH 7 0
BBX 7 11 0 -4
BITMAP
4000
5020
6014
7008
9408
8908
81A0
0000
0200
0200
0200
ENDCHAR
STARTCHAR ncommaaccent
ENCODING 326
SWIDTH 459 0
DWIDTH 6 0
BBX 6 9 0 -4
BITMAP
5A00
9080
9080
5050
1050
0000
0400
0900
0800
ENDCHAR
STARTCHAR Ncaron
ENCODING 327
SWIDTH 609 0
DWIDTH 7 0
BBX 7 10 0 0
BITMAP
0400
0680
0000
4000
5020
6014
7008
9408
8908
81A0
ENDCHAR
STARTCHAR ncaron
ENCODING 328
SWIDTH 459 0
DWIDTH 6 0
BBX 6 7 0 0
BITMAP
0A00
0000
5A00
9080
9080
5050
1050
ENDCHAR
STARTCHAR napostrophe
ENCODING 329
SWIDTH 459 0
DWIDTH 6 0
BBX 6 8 0 0
BITMAP
2000
2000
2000
5A00
9080
9080
5050
1050
ENDCHAR
STARTCHAR Omacron
ENCODING 332
SWIDTH 609 0
DWIDTH 7 0
BBX 7 9 0 0
BITMAP
0540
0540
0000
1A00
50A0
8014
8008
6008
1AA0
ENDCHAR
STARTCHAR omacron
ENCODING 333
SWIDTH 487 0
DWIDTH 6 0
BBX 6 7 0 0
BITMAP
0500
1500
1A80
5090
8050
8090
2A40
ENDCHAR
STARTCHAR Obreve
ENCODING 334
SWIDTH 609 0
DWIDTH 7 0
BBX 7 8 0 0
BITMAP
0540
0000
1A00
50A0
8014
8008
6008
1AA0
ENDCHAR
STARTCHAR obreve
ENCODING 335
SWIDTH 487 0
DWIDTH 6 0
BBX 6 7 0 0
BITMAP
1500
0000
1A80
5090
8050
8090
2A40
ENDCHAR
STARTCHAR Ohungarumlaut
ENCODING 336
SWIDTH 609 0
DWIDTH 7 0
BBX 7 9 0 0
BITMAP
0540
0540
0000
1A00
50A0
8014
8008
6008
1AA0
ENDCHAR
STARTCHAR ohungarumlaut
ENCODING 337
SWIDTH 487 0
DWIDTH 6 0
BBX 6 7 0 0
BITMAP
0500
1500
1A80
5090
8050
8090
2A40
ENDCHAR
STARTCHAR OE
ENCODING 338
SWIDTH 848 0
DWIDTH 10 0
BBX 10 6 0 0
BITMAP
2A6950
51D000
80A540
809000
608000
1AAA90
ENDCHAR
STARTCHAR oe
ENCODING 339
SWIDTH 875 0
DWIDTH 11 0
BBX 10 7 0 -1
BITMAP
000A40
1A6080
509080
806A00
80A000
2A5950
000140
ENDCHAR
STARTCHAR Racute
ENCODING 340
SWIDTH 579 0
DWIDTH 7 0
BBX 7 11 0 -1
BITMAP
0040
0200
1A40
95A0
1024
25A0
1900
1D00
0A40
0460
0014
ENDCHAR
STARTCHAR racute
ENCODING 341
SWIDTH 346 0
DWIDTH 4 0
BBX 4 8 0 0
BITMAP
04
14
15
96
80
80
50
20
ENDCHAR
STARTCHAR Rcommaaccent
ENCODING 342
SWIDTH 579 0
DWIDTH 7 0
BBX 7 12 0 -4
BITMAP
1540
95A0
1024
25A0
1900
1D00
0A40
0460
0014
0200
0200
0200
ENDCHAR
STARTCHAR rcommaaccent
ENCODING 343
SWIDTH 346 0
DWIDTH 4 0
BBX 4 10 0 -4
BITMAP
05
96
80
80
50
20
00
14
14
14
ENDCHAR
STARTCHAR Rcaron
ENCODING 344
SWIDTH 579 0
DWIDTH 7 0
BBX 7 12 0 -1
BITMAP
0040
0680
0000
1540
95A0
1024
25A0
1900
1D00
0A40
0460
0014
ENDCHAR
STARTCHAR rcaron
ENCODING 345
SWIDTH 346 0
DWIDTH 4 0
BBX 4 8 0 0
BITMAP
01
29
05
96
80
80
50
20
ENDCHAR
STARTCHAR Sacute
ENCODING 346
SWIDTH 627 0
DWIDTH 8 0
BBX 8 10 0 0
BITMAP
0040
0200
0100
0964
1400
0900
0190
4018
5009
1AA8
ENDCHAR
STARTCHAR sacute
ENCODING 347
SWIDTH 514 0
DWIDTH 6 0
BBX 6 9 0 0
BITMAP
0100
0600
0000
1500
5600
6100
1690
4020
2A90
ENDCHAR
STARTCHAR Scircumflex
ENCODING 348
SWIDTH 627 0
DWIDTH 8 0
BBX 8 11 0 0
BITMAP
0140
02C0
0450
0000
0964
1400
0900
0190
4018
5009
1AA8
ENDCHAR
STARTCHAR scircumflex
ENCODING 349
SWIDTH 514 0
DWIDTH 6 0
BBX 6 9 0 0
BITMAP
0100
0B40
1440
1500
5600
6100
1690
4020
2A90
ENDCHAR
STARTCHAR Scedilla
ENCODING 350
SWIDTH 627 0
DWIDTH 8 0
BBX 8 11 0 -4
BITMAP
0964
1400
0900
0190
4018
5009
1AA8
0800
0180
0450
0240
ENDCHAR
STARTCHAR scedilla
ENCODING 351
SWIDTH 514 0
DWIDTH 6 0
BBX 6 10 0 -4
BITMAP
1500
5600
6100
1690
4020
2A90
1400
0640
0480
0600
ENDCHAR
STARTCHAR Scaron
ENCODING 352
SWIDTH 627 0
DWIDTH 8 0
BBX 8 9 0 0
BITMAP
0280
0100
0964
1400
0900
0190
4018
5009
1AA8
ENDCHAR
STARTCHAR scaron
ENCODING 353
SWIDTH 514 0
DWIDTH 6 0
BBX 6 8 0 0
BITMAP
0040
0A40
1500
5600
6100
1690
4020
2A90
ENDCHAR
STARTCHAR Tcommaaccent
ENCODING 354
SWIDTH 581 0
DWIDTH 7 0
BBX 8 11 0 -4
BITMAP
5AAA
0140
0140
0080
0080
0080
0090
0000
0040
0080
0080
ENDCHAR
STARTCHAR tcommaaccent
ENCODING 355
SWIDTH 328 0
DWIDTH 4 0
BBX 4 11 0 -4
BITMAP
14
14
79
14
14
14
04
00
14
14
10
ENDCHAR
STARTCHAR Tcaron
ENCODING 356
SWIDTH 581 0
DWIDTH 7 0
BBX 8 9 0 0
BITMAP
0680
0000
5AAA
0140
0140
0080
0080
0080
0090
ENDCHAR
STARTCHAR tcaron
ENCODING 357
SWIDTH 431 0
DWIDTH 5 0
BBX 5 9 0 0
BITMAP
0040
0080
1480
1400
7900
1400
1400
1400
0400
ENDCHAR
STARTCHAR Utilde
ENCODING 360
SWIDTH 571 0
DWIDTH 7 0
BBX 7 9 0 0
BITMAP
0410
1180
1000
8020
8020
8020
5020
2074
1E44
ENDCHAR
STARTCHAR utilde
ENCODING 361
SWIDTH 501 0
DWIDTH 6 0
BBX 6 9 0 -1
BITMAP
1400
2280
0000
8040
8080
8080
61D0
2A20
0010
ENDCHAR
STARTCHAR Umacron
ENCODING 362
SWIDTH 571 0
DWIDTH 7 0
BBX 7 9 0 0
BITMAP
0540
0540
1000
8020
8020
8020
5020
2074
1E44
ENDCHAR
STARTCHAR umacron
ENCODING 363
SWIDTH 501 0
DWIDTH 6 0
BBX 6 9 0 -1
BITMAP
1500
1500
0000
8040
8080
8080
61D0
2A20
0010
ENDCHAR
STARTCHAR Ubreve
ENCODING 364
SWIDTH 571 0
DWIDTH 7 0
BBX 7 8 0 0
BITMAP
0540
1000
8020
8020
8020
5020
2074
1E44
ENDCHAR
STARTCHAR ubreve
ENCODING 365
SWIDTH 501 0
DWIDTH 6 0
BBX 6 8 0 -1
BITMAP
1500
0000
8040
8080
8080
61D0
2A20
0010
ENDCHAR
STARTCHAR Uring
ENCODING 366
SWIDTH 571 0
DWIDTH 7 0
BBX 7 9 0 0
BITMAP
0500
0540
1000
8020
8020
8020
5020
2074
1E44
ENDCHAR
STARTCHAR uring
ENCODING 367
SWIDTH 501 0
DWIDTH 6 0
BBX 6 8 0 -1
BITMAP
0500
0600
8040
8080
8080
61D0
2A20
0010
ENDCHAR
STARTCHAR Uhungarumlaut
ENCODING 368
SWIDTH 571 0
DWIDTH 7 0
BBX 7 9 0 0
BITMAP
0540
0600
1000
8020
8020
8020
5020
2074
1E44
ENDCHAR
STARTCHAR uhungarumlaut
ENCODING 369
SWIDTH 501 0
DWIDTH 6 0
BBX 6 9 0 -1
BITMAP
0540
0600
0000
8040
8080
8080
61D0
2A20
0010
ENDCHAR
STARTCHAR Uogonek
ENCODING 370
SWIDTH 571 0
DWIDTH 7 0
BBX 7 8 0 -2
BITMAP
5010
8020
4020
5020
2024
2598
0520
0024
ENDCHAR
STARTCHAR uogonek
ENCODING 371
SWIDTH 501 0
DWIDTH 6 0
BBX 6 8 0 -2
BITMAP
4000
8080
8080
50C0
2690
0560
0080
0050
ENDCHAR
STARTCHAR Wcircumflex
ENCODING 372
SWIDTH 703 0
DWIDTH 8 0
BBX 9 11 0 0
BITMAP
008000
029000
051000
000000
000000
400500
800200
810200
824240
568200
286900
ENDCHAR
STARTCHAR wcircumflex
ENCODING 373
SWIDTH 656 0
DWIDTH 8 0
BBX 8 9 0 0
BITMAP
0140
02D0
0510
0000
8000
8144
8145
5285
2968
ENDCHAR
STARTCHAR Ycircumflex
ENCODING 374
SWIDTH 403 0
DWIDTH 5 0
BBX 5 11 0 0
BITMAP
0800
1A00
1100
4000
9080
2540
0B00
0200
0500
0800
0800
ENDCHAR
STARTCHAR ycircumflex
ENCODING 375
SWIDTH 487 0
DWIDTH 6 0
BBX 6 15 0 -6
BITMAP
0500
0B40
1440
0000
8040
8050
5050
20A0
1A20
0020
0020
0020
4050
2480
0A40
ENDCHAR
STARTCHAR Ydieresis
ENCODING 376
SWIDTH 403 0
DWIDTH 5 0
BBX 5 10 0 0
BITMAP
1100
2200
4000
9080
2540
0B00
0200
0500
0800
0800
ENDCHAR
STARTCHAR Zacute
ENCODING 377
SWIDTH 571 0
DWIDTH 7 0
BBX 7 11 0 0
BITMAP
0040
0600
0000
1400
5640
0080
0080
1BA0
0200
0800
0AA4
ENDCHAR
STARTCHAR zacute
ENCODING 378
SWIDTH 459 0
DWIDTH 6 0
BBX 5 9 0 0
BITMAP
0100
0800
1400
A600
0200
1740
6D00
2440
2E80
ENDCHAR
STARTCHAR Zdotaccent
ENCODING 379
SWIDTH 571 0
DWIDTH 7 0
BBX 7 10 0 0
BITMAP
0400
0400
1400
5640
0080
0080
1BA0
0200
0800
0AA4
ENDCHAR
STARTCHAR zdotaccent
ENCODING 380
SWIDTH 459 0
DWIDTH 6 0
BBX 5 8 0 0
BITMAP
0400
0400
A600
0200
1740
6D00
2440
2E80
ENDCHAR
STARTCHAR Zcaron
ENCODING 381
SWIDTH 571 0
DWIDTH 7 0
BBX 7 9 0 0
BITMAP
0A40
1500
5640
0080
0080
1BA0
0200
0800
0AA4
ENDCHAR
STARTCHAR zcaron
ENCODING 382
SWIDTH 459 0
DWIDTH 6 0
BBX 5 9 0 0
BITMAP
0100
1900
0400
A600
0200
1740
6D00
2440
2E80
ENDCHAR
STARTCHAR florin
ENCODING 402
SWIDTH 376 0
DWIDTH 5 0
BBX 6 12 -1 -3
BITMAP
0140
0660
0800
0800
0800
2E80
0800
0800
0800
0800
8800
2800
ENDCHAR
STARTCHAR AEacute
ENCODING 508
SWIDTH 960 0
DWIDTH 12 0
BBX 11 11 0 0
BITMAP
000400
001800
1A8000
205554
502954
402800
4019A4
A5A800
501400
501400
101AB8
ENDCHAR
STARTCHAR aeacute
ENCODING 509
SWIDTH 881 0
DWIDTH 11 0
BBX 10 10 0 -1
BITMAP
000400
002000
000000
0A0A40
00A080
1AA180
90A900
802000
2A9A50
000040
ENDCHAR
STARTCHAR Oslashacute
ENCODING 510
SWIDTH 609 0
DWIDTH 7 0
BBX 7 9 0 -1
BITMAP
0200
0400
1A80
50E0
8154
8208
6608
1EA0
0800
ENDCHAR
STARTCHAR oslashacute
ENCODING 511
SWIDTH 487 0
DWIDTH 6 0
BBX 6 7 0 0
BITMAP
0600
0400
1A80
51D0
8250
9990
2A40
ENDCHAR
STARTCHAR Scommaaccent
ENCODING 536
SWIDTH 627 0
DWIDTH 8 0
BBX 8 11 0 -4
BITMAP
0964
1400
0900
0190
4018
5009
1AA8
0000
0200
0200
0200
ENDCHAR
STARTCHAR scommaaccent
ENCODING 537
SWIDTH 514 0
DWIDTH 6 0
BBX 6 10 0 -4
BITMAP
1500
5600
6100
1690
4020
2A90
0000
0500
0500
0500
ENDCHAR
STARTCHAR circumflex
ENCODING 710
SWIDTH 375 0
DWIDTH 5 0
BBX 4 3 0 6
BITMAP
08
29
51
ENDCHAR
STARTCHAR caron
ENCODING 711
SWIDTH 375 0
DWIDTH 5 0
BBX 3 2 1 6
BITMAP
04
64
ENDCHAR
STARTCHAR breve
ENCODING 728
SWIDTH 224 0
DWIDTH 3 0
BBX 3 1 0 5
BITMAP
54
ENDCHAR
STARTCHAR dotaccent
ENCODING 729
SWIDTH 152 0
DWIDTH 2 0
BBX 1 1 0 6
BITMAP
40
ENDCHAR
STARTCHAR ring
ENCODING 730
SWIDTH 333 0
DWIDTH 4 0
BBX 3 2 1 5
BITMAP
60
54
ENDCHAR
STARTCHAR ogonek
ENCODING 731
SWIDTH 254 0
DWIDTH 3 0
BBX 3 3 0 -2
BITMAP
10
90
54
ENDCHAR
STARTCHAR tilde
ENCODING 732
SWIDTH 402 0
DWIDTH 5 0
BBX 5 2 0 5
BITMAP
1040
8A00
ENDCHAR
STARTCHAR hungarumlaut
ENCODING 733
SWIDTH 264 0
DWIDTH 3 0
BBX 3 2 0 5
BITMAP
14
54
ENDCHAR
STARTCHAR Wgrave
ENCODING 7808
SWIDTH 703 0
DWIDTH 8 0
BBX 9 9 0 0
BITMAP
014000
008000
000000
400500
800200
810200
824240
568200
286900
ENDCHAR
STARTCHAR wgrave
ENCODING 7809
SWIDTH 656 0
DWIDTH 8 0
BBX 8 7 0 0
BITMAP
0100
0080
8000
8144
8145
5285
2968
ENDCHAR
STARTCHAR Wacute
ENCODING 7810
SWIDTH 703 0
DWIDTH 8 0
BBX 9 9 0 0
BITMAP
004000
024000
000000
400500
800200
810200
824240
568200
286900
ENDCHAR
STARTCHAR wacute
ENCODING 7811
SWIDTH 656 0
DWIDTH 8 0
BBX 8 8 0 0
BITMAP
0040
0240
0000
8000
8144
8145
5285
2968
ENDCHAR
STARTCHAR Wdieresis
ENCODING 7812
SWIDTH 703 0
DWIDTH 8 0
BBX 9 8 0 0
BITMAP
066000
000000
400500
800200
810200
824240
568200
286900
ENDCHAR
STARTCHAR wdieresis
ENCODING 7813
SWIDTH 656 0
DWIDTH 8 0
BBX 8 6 0 0
BITMAP
0590
8000
8144
8145
5285
2968
ENDCHAR
STARTCHAR Ygrave
ENCODING 7922
SWIDTH 403 0
DWIDTH 5 0
BBX 5 10 0 0
BITMAP
1400
0400
4000
9080
2540
0B00
0200
0500
0800
0800
ENDCHAR
STARTCHAR ygrave
ENCODING 7923
SWIDTH 487 0
DWIDTH 6 0
BBX 6 13 0 -6
BITMAP
0400
0200
8040
8050
5050
20A0
1A20
0020
0020
0020
4050
2480
0A40
ENDCHAR
STARTCHAR endash
ENCODING 8211
SWIDTH 287 0
DWIDTH 3 0
BBX 3 1 0 3
BITMAP
68
ENDCHAR
STARTCHAR emdash
ENCODING 8212
SWIDTH 512 0
DWIDTH 6 0
BBX 6 1 0 3
BITMAP
6A90
ENDCHAR
STARTCHAR quoteleft
ENCODING 8216
SWIDTH 102 0
DWIDTH 1 0
BBX 1 3 0 6
BITMAP
40
80
80
ENDCHAR
STARTCHAR quoteright
ENCODING 8217
SWIDTH 102 0
DWIDTH 1 0
BBX 1 3 0 6
BITMAP
40
80
80
ENDCHAR
STARTCHAR quotesinglbase
ENCODING 8218
SWIDTH 102 0
DWIDTH 1 0
BBX 1 3 0 0
BITMAP
40
80
80
ENDCHAR
STARTCHAR quotedblleft
ENCODING 8220
SWIDTH 234 0
DWIDTH 3 0
BBX 3 3 0 6
BITMAP
94
94
54
ENDCHAR
STARTCHAR quotedblright
ENCODING 8221
SWIDTH 234 0
DWIDTH 3 0
BBX 3 3 0 6
BITMAP
94
94
54
ENDCHAR
STARTCHAR quotedblbase
ENCODING 8222
SWIDTH 341 0
DWIDTH 4 0
BBX 3 4 1 -2
BITMAP
60
A4
94
10
ENDCHAR
STARTCHAR dagger
ENCODING 8224
SWIDTH 375 0
DWIDTH 5 0
BBX 4 8 0 0
BITMAP
10
14
18
6A
08
08
08
08
ENDCHAR
STARTCHAR daggerdbl
ENCODING 8225
SWIDTH 375 0
DWIDTH 5 0
BBX 6 9 -1 0
BITMAP
0500
0500
0100
6BA0
0200
6A90
0200
0200
0200
ENDCHAR
STARTCHAR bullet
ENCODING 8226
SWIDTH 341 0
DWIDTH 4 0
BBX 3 2 1 2
BITMAP
B4
70
ENDCHAR
STARTCHAR ellipsis
ENCODING 8230
SWIDTH 612 0
DWIDTH 7 0
BBX 7 2 0 0
BITMAP
735C
6258
ENDCHAR
STARTCHAR guilsinglleft
ENCODING 8249
SWIDTH 487 0
DWIDTH 6 0
BBX 6 5 0 0
BITMAP
0090
0600
2400
A400
1680
ENDCHAR
STARTCHAR guilsinglright
ENCODING 8250
SWIDTH 403 0
DWIDTH 5 0
BBX 5 6 0 0
BITMAP
4000
2900
0280
0240
1800
5000
ENDCHAR
STARTCHAR fraction
ENCODING 8260
SWIDTH 309 0
DWIDTH 4 0
BBX 4 9 0 0
BITMAP
01
05
08
08
14
20
20
90
80
ENDCHAR
STARTCHAR Euro
ENCODING 8364
SWIDTH 741 0
DWIDTH 9 0
BBX 8 9 0 0
BITMAP
0004
0025
01D0
AA54
0400
6E90
0800
0801
02AA
ENDCHAR
STARTCHAR trademark
ENCODING 8482
SWIDTH 1116 0
DWIDTH 13 0
BBX 13 8 0 0
BITMAP
55410000
16AB4180
0141D280
00416980
00814080
00814080
00814080
00914080
ENDCHAR
STARTCHAR minus
ENCODING 8722
SWIDTH 287 0
DWIDTH 3 0
BBX 3 1 0 3
BITMAP
68
ENDCHAR
STARTCHAR commaaccent
ENCODING 63171
SWIDTH 375 0
DWIDTH 5 0
BBX 2 3 1 -4
BITMAP
40
50
40
ENDCHAR
STARTCHAR fi
ENCODING 64257
SWIDTH 551 0
DWIDTH 7 0
BBX 5 9 0 0
BITMAP
0500
1980
2100
2000
2080
BA80
1480
0880
0680
ENDCHAR
STARTCHAR fl
ENCODING 64258
SWIDTH 723 0
DWIDTH 9 0
BBX 5 9 0 0
BITMAP
0500
1980
2040
2180
2180
BA80
1580
0980
0640
ENDCHAR
STARTCHAR .notdef
ENCODING -1
SWIDTH 375 0
DWIDTH 5 0
BBX 1 1 0 0
BITMAP
00
ENDCHAR
STARTCHAR .null
ENCODING -1
SWIDTH 0 0
DWIDTH 0 0
BBX 1 1 0 0
BITMAP
00
ENDCHAR
STARTCHAR nonmarkingreturn
ENCODING -1
SWIDTH 375 0
DWIDTH 5 0
BBX 1 1 0 0
BITMAP
00
ENDCHAR
ENDFONT
